<?xml version="1.0" encoding="utf-8"?>
<!-- Generator: Adobe Illustrator 24.2.1, SVG Export Plug-In . SVG Version: 6.00 Build 0)  -->
<svg version="1.1" id="Calque_1" xmlns="http://www.w3.org/2000/svg" xmlns:xlink="http://www.w3.org/1999/xlink" x="0px" y="0px"
	 viewBox="0 0 141.73 141.73" style="enable-background:new 0 0 141.73 141.73;" xml:space="preserve">
<style type="text/css">
	.st0{fill:#E6E6E6;}
	.st1{fill:#D9D9D9;}
</style>
<path class="st0" d="M126.53,135.55h-110c-5.52,0-10-4.48-10-10v-110c0-5.52,4.48-10,10-10h110c5.52,0,10,4.48,10,10v110
	C136.53,131.07,132.06,135.55,126.53,135.55z"/>
<g>
	<path class="st1" d="M105.58,98.25c-7.41,2.25-14.64,4.46-21.88,6.64c-6.76,2.03-13.52,4.07-20.31,5.99
		c-0.64,0.18-1.91-0.16-2.18-0.65c-4.75-8.63-9.39-17.32-14.04-26c-0.07-0.13-0.01-0.34-0.01-0.84c3.52-1.04,7.13-2.18,10.77-3.18
		c9.35-2.56,18.71-5.1,28.09-7.52c0.92-0.24,2.58,0.01,3.02,0.64c5.49,7.89,10.83,15.89,16.19,23.87
		C105.37,97.42,105.4,97.7,105.58,98.25z"/>
	<path class="st1" d="M134.47,92.87c-2.87,2.78-5.31,5.58-9.3,6.77c-28.09,8.33-56.14,16.83-84.21,25.25
		c-4.3,1.29-7.22-0.01-9.15-4.08C24.4,105.18,17.04,89.53,9.53,73.65c14.28-3.4,28.37-6.75,42.45-10.1
		c0.12,0.15,0.24,0.29,0.37,0.44c-0.4,0.34-0.75,0.89-1.21,1c-11.57,2.81-23.15,5.58-34.73,8.36c-1.56,0.37-3.11,0.79-4.91,1.25
		c7.42,15.8,14.77,31.43,22.15,47.15c32.83-9.77,65.51-19.49,98.56-29.32c-11.19-12.98-22.17-25.72-33.33-38.67
		c-9.76,2.3-19.69,4.65-29.62,6.99c-0.11-0.21-0.23-0.43-0.34-0.64c0.34-0.27,0.64-0.68,1.03-0.77c9.25-2.27,18.51-4.55,27.8-6.68
		c0.83-0.19,2.2,0.43,2.81,1.12c6.38,7.27,12.63,14.64,18.96,21.96C124.42,81.4,129.38,87.03,134.47,92.87z"/>
	<path class="st1" d="M90.36,71.5c5.82-1.33,11.6-2.69,17.4-3.94c0.55-0.12,1.46,0.14,1.82,0.55c6.54,7.68,13.02,15.4,19.77,23.43
		c-2.36,0.72-4.47,1.42-6.62,2c-4.36,1.18-8.72,2.34-13.11,3.37c-0.81,0.19-2.24,0.01-2.62-0.53c-5.59-7.94-11.05-15.96-16.53-23.98
		C90.35,72.21,90.41,71.9,90.36,71.5z"/>
	<path class="st1" d="M26.48,101.62c6.23-1.86,12.09-3.64,17.97-5.34c2.02-0.58,4.44-1.81,6.04-1.17c1.49,0.6,2.17,3.29,3.14,5.09
		c1.99,3.71,3.94,7.43,5.9,11.16c0.07,0.14,0.01,0.34,0.01,0.81c-5.52,1.61-11.1,3.24-16.69,4.87c-2.13,0.62-4.24,1.34-6.41,1.78
		c-0.69,0.14-1.99-0.23-2.24-0.74C31.6,112.78,29.16,107.41,26.48,101.62z"/>
	<path class="st1" d="M49.82,92.85c-8.17,2.36-16.15,4.66-24.37,7.03c-2.47-5.29-4.99-10.6-7.4-15.96
		c-0.16-0.37,0.35-1.47,0.73-1.58c6.94-2,13.9-3.92,20.88-5.76c0.45-0.12,1.37,0.37,1.63,0.83C44.15,82.46,46.92,87.56,49.82,92.85z
		"/>
	<path class="st1" d="M74.89,31.6c4.04,2.88,5.8,8.68,3.22,12.79c-2.53,4.04-5.8,7.66-8.99,11.24c-2.68,3-5.32,6.01-5.45,10.2
		c-0.08,2.68,0.6,5.38,0.92,7.96c-5.24-0.49-10.91-8.13-7.28-16.18c2.11-4.66,5.38-8.34,9.05-11.78c3.17-2.98,6.96-5.54,7.93-10.23
		C74.55,34.34,74.68,33.06,74.89,31.6z"/>
	<path class="st1" d="M52.07,60.23c-2.93-3.13-3.38-6.41-2.7-9.81c0.72-3.59,2.57-6.65,5.18-9.32c2.52-2.58,5.02-5.24,7.11-8.17
		c3.27-4.58,4.12-9.68,2.11-15.1c-0.26-0.7-0.42-1.43-0.67-2.29c3.18,1.31,6.13,5.51,6.92,9.02c1.81,7.99-2.28,13.41-7.64,18.37
		c-2.41,2.23-4.81,4.48-7.06,6.86C53.19,52.07,52.64,54.13,52.07,60.23z"/>
	<path class="st1" d="M107.36,65.7c-4.11,1.02-7.62,2.01-11.19,2.69c-0.91,0.17-2.34-0.36-2.96-1.07c-1.91-2.17-3.55-4.59-5.48-7.15
		c3.79-1.01,7.35-1.98,10.93-2.86c0.49-0.12,1.3,0.04,1.62,0.39C102.6,60.21,104.83,62.81,107.36,65.7z"/>
</g>
</svg>
